<svg xmlns="http://www.w3.org/2000/svg" width="8" height="10" fill="none" viewBox="0 0 8 10">
    <path fill="#000002" fill-rule="evenodd" d="M0 3.696A3.7 3.7 0 0 1 3.696 0a3.7 3.7 0 0 1 3.696 3.696c0 1.17-.992 2.925-1.584 3.866a17.266 17.266 0 0 1-1.17 1.655c-.589.723-.788.783-.942.783-.152 0-.363-.06-.953-.782a16.77 16.77 0 0 1-1.17-1.656C.986 6.622 0 4.872 0 3.696zm1.516 0c0-1.202.978-2.18 2.18-2.18 1.202 0 2.18.978 2.18 2.18 0 1.202-.978 2.18-2.18 2.18a2.182 2.182 0 0 1-2.18-2.18zm.587 0c0 .879.714 1.593 1.593 1.593S5.29 4.575 5.29 3.696c0-.878-.714-1.593-1.593-1.593s-1.593.714-1.593 1.593z" clip-rule="evenodd"/>
</svg>
